<svg width="1200" height="630" viewBox="0 0 1200 630" fill="none" xmlns="http://www.w3.org/2000/svg">
  <rect width="1200" height="630" rx="28" fill="#0B0D10"/>
  <rect x="58" y="58" width="1084" height="514" rx="24" fill="#11151A" stroke="#2E343B"/>
  <text x="92" y="128" fill="#F7F7F2" font-family="Inter, Arial, sans-serif" font-size="42" font-weight="700">Preview environments for coding agents</text>
  <text x="92" y="168" fill="#AEB6BF" font-family="Inter, Arial, sans-serif" font-size="22">Agent changes become clickable, VM-backed review URLs before production.</text>

  <g transform="translate(92 244)">
    <rect width="230" height="132" rx="18" fill="#171C22" stroke="#3C4652"/>
    <text x="24" y="42" fill="#F7F7F2" font-family="Inter, Arial, sans-serif" font-size="24" font-weight="700">Coding agent</text>
    <text x="24" y="78" fill="#AEB6BF" font-family="Inter, Arial, sans-serif" font-size="17">Edits code</text>
    <text x="24" y="104" fill="#AEB6BF" font-family="Inter, Arial, sans-serif" font-size="17">Runs commands</text>
  </g>

  <path d="M352 310H458" stroke="#F5B84B" stroke-width="5" stroke-linecap="round"/>
  <path d="M442 292L464 310L442 328" stroke="#F5B84B" stroke-width="5" stroke-linecap="round" stroke-linejoin="round"/>

  <g transform="translate(488 224)">
    <rect width="262" height="172" rx="18" fill="#172018" stroke="#4C6B51"/>
    <text x="24" y="42" fill="#F7F7F2" font-family="Inter, Arial, sans-serif" font-size="24" font-weight="700">Prevu environment</text>
    <text x="24" y="82" fill="#B7C8B9" font-family="Inter, Arial, sans-serif" font-size="17">VM-backed runtime</text>
    <text x="24" y="110" fill="#B7C8B9" font-family="Inter, Arial, sans-serif" font-size="17">SSH, services, logs</text>
    <text x="24" y="138" fill="#B7C8B9" font-family="Inter, Arial, sans-serif" font-size="17">Exposed app ports</text>
  </g>

  <path d="M782 310H888" stroke="#F5B84B" stroke-width="5" stroke-linecap="round"/>
  <path d="M872 292L894 310L872 328" stroke="#F5B84B" stroke-width="5" stroke-linecap="round" stroke-linejoin="round"/>

  <g transform="translate(918 244)">
    <rect width="190" height="132" rx="18" fill="#201817" stroke="#6D5047"/>
    <text x="24" y="42" fill="#F7F7F2" font-family="Inter, Arial, sans-serif" font-size="24" font-weight="700">Review URL</text>
    <text x="24" y="78" fill="#C9B8B1" font-family="Inter, Arial, sans-serif" font-size="17">Public HTTPS</text>
    <text x="24" y="104" fill="#C9B8B1" font-family="Inter, Arial, sans-serif" font-size="17">Human clicks</text>
  </g>

  <rect x="92" y="452" width="1016" height="56" rx="14" fill="#0B0D10" stroke="#2E343B"/>
  <text x="120" y="488" fill="#F7F7F2" font-family="Inter, Arial, sans-serif" font-size="20">agent changes code -> Prevu runs it -> public URL -> human review -> agent iterates</text>
</svg>
