<svg width="1200" height="630" viewBox="0 0 1200 630" fill="none" xmlns="http://www.w3.org/2000/svg">
  <rect width="1200" height="630" fill="#0B0B0B"/>
  <rect x="54" y="54" width="1092" height="522" rx="28" fill="#111111" stroke="#2A2A2A"/>
  <text x="96" y="128" fill="#8E8E8E" font-family="Inter, Arial, sans-serif" font-size="24" font-weight="700" letter-spacing="6">PREVU.CLOUD</text>
  <text x="96" y="210" fill="#F5F5F5" font-family="Inter, Arial, sans-serif" font-size="62" font-weight="800">Preview environments</text>
  <text x="96" y="282" fill="#F5F5F5" font-family="Inter, Arial, sans-serif" font-size="62" font-weight="800">for coding agents</text>
  <text x="96" y="348" fill="#BDBDBD" font-family="Inter, Arial, sans-serif" font-size="30">VM-backed previews, SSH, logs, services,</text>
  <text x="96" y="390" fill="#BDBDBD" font-family="Inter, Arial, sans-serif" font-size="30">and public HTTPS URLs for human review.</text>
  <rect x="96" y="455" width="228" height="58" rx="12" fill="#F5F5F5"/>
  <text x="128" y="493" fill="#111111" font-family="Inter, Arial, sans-serif" font-size="24" font-weight="700">github.com/prevu-cloud/prevu</text>
  <g transform="translate(710 156)">
    <rect x="0" y="0" width="150" height="120" rx="16" fill="#181818" stroke="#3A3A3A"/>
    <text x="24" y="42" fill="#F5F5F5" font-family="Inter, Arial, sans-serif" font-size="22" font-weight="800">Agent</text>
    <text x="24" y="76" fill="#AFAFAF" font-family="Inter, Arial, sans-serif" font-size="18">edits</text>
    <text x="24" y="102" fill="#AFAFAF" font-family="Inter, Arial, sans-serif" font-size="18">code</text>
    <path d="M170 60H218" stroke="#F5F5F5" stroke-width="4"/>
    <path d="M218 60L204 50V70L218 60Z" fill="#F5F5F5"/>
    <rect x="240" y="0" width="190" height="120" rx="16" fill="#181818" stroke="#3A3A3A"/>
    <text x="264" y="42" fill="#F5F5F5" font-family="Inter, Arial, sans-serif" font-size="22" font-weight="800">Prevu env</text>
    <text x="264" y="76" fill="#AFAFAF" font-family="Inter, Arial, sans-serif" font-size="18">VM, logs,</text>
    <text x="264" y="102" fill="#AFAFAF" font-family="Inter, Arial, sans-serif" font-size="18">services</text>
    <path d="M450 60H498" stroke="#F5F5F5" stroke-width="4"/>
    <path d="M498 60L484 50V70L498 60Z" fill="#F5F5F5"/>
    <rect x="520" y="0" width="190" height="120" rx="16" fill="#181818" stroke="#3A3A3A"/>
    <text x="544" y="42" fill="#F5F5F5" font-family="Inter, Arial, sans-serif" font-size="22" font-weight="800">Review URL</text>
    <text x="544" y="76" fill="#AFAFAF" font-family="Inter, Arial, sans-serif" font-size="18">humans</text>
    <text x="544" y="102" fill="#AFAFAF" font-family="Inter, Arial, sans-serif" font-size="18">click</text>
  </g>
  <rect x="710" y="352" width="398" height="58" rx="12" fill="#050505" stroke="#363636"/>
  <text x="738" y="389" fill="#E8E8E8" font-family="Menlo, Consolas, monospace" font-size="20">$ prevu env expose --port 3000</text>
  <rect x="710" y="430" width="398" height="58" rx="12" fill="#151515" stroke="#363636"/>
  <text x="738" y="467" fill="#E8E8E8" font-family="Menlo, Consolas, monospace" font-size="20">https://my-app.prevu.page</text>
</svg>
